# xmcd
#
# Track frame offsets:
#   150
#   17609
#   34627
#   53205
#   72014
#   89261
#   103287
#   119653
#   134594
#   151847
#   166011
#   183593
#   201994
#   218832
#   236395
#   249553
#   265190
#
# Disc length: 3726 seconds
#
# Revision: 0
# Processed by: cddbd v1.5.1PL2 Copyright (c) Steve Scherf et al.
# Submitted via: uFREEDB ActiveX Control 1.5
#
DISCID=ec0e8c11
DTITLE=Estakazero - Lua Minha
DYEAR=2004
DGENRE=Latin
TTITLE0=Inovação
TTITLE1=Lua Minha
TTITLE2=De frente pro mar
TTITLE3=Naúfrago Ilhado
TTITLE4=Vou Lembrar
TTITLE5=Aldeia
TTITLE6=Olhos Perdidos
TTITLE7=Desencontros
TTITLE8=Onda que Traz
TTITLE9=To acanhado
TTITLE10=Olhar de Poeta
TTITLE11=Débora
TTITLE12=Deixa doido Eu (encosta n´eu)
TTITLE13=O som da chapada
TTITLE14=Oh Chuva
TTITLE15=Preciso te ver
TTITLE16=Xote brasileiro
EXTD=Estakazero o forró da bahia
EXTT0=
EXTT1=
EXTT2=
EXTT3=
EXTT4=
EXTT5=
EXTT6=
EXTT7=
EXTT8=
EXTT9=
EXTT10=
EXTT11=
EXTT12=
EXTT13=
EXTT14=
EXTT15=
EXTT16=
PLAYORDER=
